<?xml version="1.0" standalone="no"?>
<!DOCTYPE svg PUBLIC "-//W3C//DTD SVG 20010904//EN"
 "http://www.w3.org/TR/2001/REC-SVG-20010904/DTD/svg10.dtd">
<svg version="1.0" xmlns="http://www.w3.org/2000/svg"
 width="813.000000pt" height="813.000000pt" viewBox="0 0 813.000000 813.000000"
 preserveAspectRatio="xMidYMid meet">
<metadata>
Created by potrace 1.16, written by Peter Selinger 2001-2019
</metadata>
<g transform="translate(0.000000,813.000000) scale(0.100000,-0.100000)"
fill="#000000" stroke="none">
<path d="M4570 8090 c457 -60 852 -176 1255 -369 298 -143 583 -327 845 -545
47 -39 78 -62 70 -52 -19 24 -225 188 -330 263 -536 381 -1164 625 -1833 713
-43 5 -93 10 -110 9 -18 -1 29 -9 103 -19z"/>
<path d="M3936 7681 c-3 -5 -9 -157 -12 -337 -6 -279 -5 -331 7 -341 10 -8 72
-12 189 -14 l175 -2 3 55 c4 67 2 68 -137 68 l-94 0 7 284 7 283 -23 7 c-35 9
-116 7 -122 -3z"/>
<path d="M3470 7636 c-3 -3 -48 -10 -99 -17 -95 -12 -136 -32 -126 -61 4 -12
28 -174 70 -473 8 -55 17 -115 20 -134 l6 -33 65 4 c35 2 68 8 74 14 6 6 4 45
-5 109 -8 55 -15 105 -15 112 0 6 33 19 75 28 129 29 190 88 207 202 10 65 9
73 -14 125 -37 79 -99 121 -188 126 -36 2 -67 1 -70 -2z m69 -131 c44 -22 65
-94 46 -155 -9 -27 -53 -49 -106 -52 l-43 -3 -17 95 c-10 52 -18 100 -18 107
-2 23 97 29 138 8z"/>
<path d="M4642 7618 c-10 -13 -131 -240 -256 -481 -36 -71 -66 -135 -66 -143
0 -15 23 -22 85 -26 37 -3 41 0 72 47 64 98 42 90 180 70 l121 -18 13 -78 c14
-88 20 -94 107 -104 l52 -6 0 43 c0 36 -115 677 -123 684 -1 1 -26 7 -55 13
-69 14 -117 14 -130 -1z m99 -281 c11 -71 19 -131 16 -134 -6 -5 -177 16 -177
22 0 8 133 245 136 243 2 -2 13 -61 25 -131z"/>
<path d="M5116 7512 c-3 -5 -1 -26 4 -48 5 -21 16 -122 25 -224 l15 -185 -40
-110 c-22 -60 -40 -118 -40 -127 0 -11 18 -23 55 -37 56 -21 85 -19 85 5 0 8
4 22 10 32 5 9 24 56 40 103 l31 85 140 130 c78 71 154 141 170 156 37 34 36
43 -3 58 -18 6 -41 16 -50 21 -41 21 -63 10 -159 -88 -53 -54 -101 -107 -107
-118 -9 -15 -12 9 -12 105 -2 179 -7 200 -55 227 -40 22 -99 31 -109 15z"/>
<path d="M2563 7373 c-29 -15 -53 -32 -53 -40 0 -7 27 -64 60 -127 l60 -114
-107 -58 c-67 -36 -108 -53 -111 -45 -2 6 -10 18 -18 25 -8 8 -14 18 -14 22 0
5 -83 154 -96 172 -11 15 -124 -53 -124 -74 0 -4 73 -137 161 -296 173 -309
169 -305 232 -275 15 6 27 18 27 25 0 6 7 12 15 12 8 0 15 5 15 10 0 12 -1 13
-75 142 -30 53 -55 100 -55 105 0 4 44 32 98 62 53 30 101 59 105 65 6 7 10 7
13 1 3 -5 33 -62 67 -125 48 -89 67 -116 85 -118 25 -4 112 42 112 59 0 21
-321 591 -335 595 -5 2 -34 -9 -62 -23z"/>
<path d="M6045 6985 c-49 -25 -90 -79 -105 -139 -15 -63 -11 -84 36 -187 50
-112 52 -132 19 -163 -32 -30 -54 -32 -95 -11 -45 23 -79 62 -105 121 -13 30
-30 54 -38 54 -7 0 -28 -18 -46 -40 -33 -41 -35 -76 -5 -101 8 -6 14 -18 14
-25 0 -15 77 -94 91 -94 4 0 20 -11 34 -24 42 -39 112 -51 179 -32 62 18 104
56 137 124 28 58 22 113 -26 215 -48 102 -54 138 -26 166 27 27 58 27 101 -3
34 -23 80 -93 80 -122 0 -8 7 -14 16 -14 19 0 74 59 74 81 0 52 -103 172 -159
184 -17 4 -33 11 -36 16 -10 14 -107 10 -140 -6z"/>
<path d="M1875 6950 c-73 -36 -142 -105 -160 -161 -18 -54 -15 -131 4 -137 6
-2 11 -10 11 -17 0 -22 52 -77 87 -91 42 -18 106 -18 199 2 105 21 133 17 158
-25 l19 -34 -21 -41 c-25 -46 -68 -71 -154 -91 -64 -14 -70 -31 -31 -80 34
-43 68 -46 147 -11 108 48 196 159 196 246 0 82 -76 182 -152 202 -38 10 -62
9 -125 -2 -43 -8 -105 -15 -137 -15 -57 0 -60 1 -67 28 -17 63 31 114 129 137
44 10 52 15 52 35 0 13 -7 25 -15 29 -8 3 -15 12 -15 20 0 30 -70 34 -125 6z"/>
<path d="M3840 6769 c-449 -39 -893 -193 -1262 -438 -76 -51 -138 -94 -138
-97 0 -6 -9 -12 150 94 146 97 396 222 561 281 597 211 1231 211 1828 0 153
-54 410 -181 541 -266 122 -80 139 -90 125 -75 -32 33 -253 164 -390 232 -447
218 -934 311 -1415 269z"/>
<path d="M6458 6566 c-114 -44 -257 -200 -287 -313 -14 -51 2 -142 33 -192 31
-49 114 -124 164 -150 59 -30 90 -27 124 11 41 46 37 66 -14 74 -60 10 -158
105 -158 153 0 96 54 182 157 248 58 37 128 45 173 18 14 -8 32 -17 41 -21 18
-6 54 -78 67 -133 4 -19 13 -36 19 -38 6 -2 27 10 47 28 31 27 36 37 36 74 0
24 -4 47 -10 50 -5 3 -10 15 -10 26 0 22 -81 106 -140 145 -47 32 -183 42
-242 20z"/>
<path d="M1281 6383 c-28 -32 -51 -66 -51 -77 0 -24 305 -552 340 -590 23 -24
31 -26 48 -17 12 6 29 25 39 41 9 17 21 30 25 30 15 0 8 18 -27 72 -19 29 -38
61 -41 70 -4 13 19 47 72 111 43 50 78 93 79 95 3 3 75 -26 107 -43 14 -8 32
-15 39 -15 15 0 99 89 99 105 0 18 -49 41 -330 150 -151 58 -283 110 -292 116
-35 18 -57 8 -107 -48z m241 -165 c68 -28 125 -52 126 -54 5 -3 -100 -134
-107 -134 -3 0 -38 54 -78 120 -40 66 -70 120 -68 120 2 0 59 -23 127 -52z"/>
<path d="M2300 6122 c-463 -396 -783 -948 -900 -1550 -11 -57 -20 -113 -19
-125 0 -12 11 32 24 98 86 453 277 869 561 1225 86 107 285 306 387 388 43 34
74 62 70 62 -5 0 -60 -44 -123 -98z"/>
<path d="M4963 6189 c-58 -7 -145 -45 -254 -111 -40 -23 -91 -54 -114 -68 -23
-14 -59 -37 -81 -52 -23 -16 -65 -32 -99 -38 -174 -31 -161 -25 -226 -103 -43
-51 -90 -70 -157 -64 -63 7 -96 26 -123 72 -25 42 -86 68 -207 89 -102 18
-180 52 -352 157 -96 58 -182 89 -250 89 -79 0 -232 -62 -312 -127 -25 -21
-55 -45 -66 -53 -11 -8 -29 -31 -41 -50 -103 -173 -109 -202 -56 -255 38 -39
157 -271 192 -375 52 -153 67 -356 39 -502 -17 -84 -81 -255 -119 -319 -15
-24 -36 -64 -48 -89 -31 -64 -138 -215 -199 -280 -87 -92 -122 -139 -115 -151
4 -6 2 -15 -5 -19 -7 -4 -15 -30 -17 -57 -6 -58 16 -132 55 -183 39 -53 174
-190 186 -190 6 0 31 -20 56 -45 59 -59 138 -105 181 -105 19 0 62 13 96 29
l61 29 109 -75 c59 -42 158 -110 218 -151 127 -87 278 -194 285 -203 11 -13
135 -99 143 -99 10 0 131 -84 167 -116 14 -12 65 -49 113 -83 l89 -62 47 35
c26 20 61 47 77 61 47 41 207 157 229 165 11 4 40 25 65 47 47 41 298 231 359
272 71 48 237 176 269 208 39 39 42 39 101 11 25 -12 71 -24 102 -26 51 -4 58
-2 90 28 19 18 51 45 71 60 110 81 207 191 257 289 35 69 41 90 41 144 0 88
-42 167 -149 277 -92 95 -194 222 -229 284 -57 100 -112 216 -131 278 -46 153
-52 435 -12 592 26 98 95 245 162 343 60 89 60 100 5 214 -30 62 -48 84 -109
133 -130 106 -276 160 -394 145z m198 -117 c100 -49 139 -74 178 -115 45 -49
91 -125 91 -153 0 -12 -21 -50 -47 -85 -86 -117 -154 -280 -182 -433 -15 -84
-13 -293 4 -411 15 -101 30 -159 59 -227 l16 -38 -223 0 -223 0 -32 65 c-33
68 -47 87 -127 173 -121 131 -233 194 -406 228 -68 13 -133 24 -146 24 l-23 0
0 268 c0 147 -3 277 -6 289 -5 19 -1 23 33 29 38 7 93 33 93 44 0 4 17 25 38
47 32 35 45 42 92 48 109 14 157 32 248 94 49 34 118 75 153 92 35 17 71 37
79 44 8 7 40 22 70 34 80 31 176 25 261 -17z m-1921 -30 c25 -12 52 -26 60
-31 86 -55 226 -132 270 -148 30 -12 87 -26 127 -32 101 -16 121 -25 178 -87
39 -42 57 -54 80 -54 17 0 35 -4 42 -8 8 -5 14 -91 19 -300 l7 -292 -27 0
c-27 0 -128 -22 -194 -42 -55 -16 -160 -81 -219 -133 -76 -69 -166 -180 -199
-248 l-28 -57 -233 0 -233 0 6 28 c4 15 10 34 14 42 14 29 39 156 45 235 7 90
-12 241 -46 364 -37 131 -152 364 -209 421 -43 43 -17 116 83 226 45 50 157
115 232 135 56 15 176 5 225 -19z m1020 -1038 c205 -48 410 -219 489 -408 44
-107 58 -211 43 -328 -23 -187 -151 -377 -319 -477 -231 -136 -531 -137 -750
-2 -28 17 -55 31 -61 31 -9 0 -91 88 -141 152 -30 38 -97 174 -112 228 -19 68
-17 243 5 313 32 110 72 180 149 266 106 119 207 182 356 222 84 23 252 24
341 3z m-934 -501 c-15 -59 -18 -194 -7 -259 59 -337 325 -583 692 -639 l36
-5 7 -411 c4 -226 6 -412 4 -415 -3 -2 -37 20 -77 49 -40 28 -87 60 -105 71
-17 10 -60 39 -96 65 -36 25 -83 59 -106 74 -22 15 -49 35 -60 45 -10 10 -35
28 -54 42 -19 13 -37 27 -40 30 -3 4 -38 26 -78 49 -40 23 -96 61 -125 84 -87
71 -316 227 -331 227 -9 0 -36 -13 -62 -29 -76 -49 -94 -49 -171 2 -75 49
-218 189 -289 282 -41 55 -45 64 -41 107 3 41 12 56 78 130 115 131 153 176
169 206 15 27 150 256 177 300 13 22 15 22 249 22 l236 0 -6 -27z m2013 -5 c9
-16 35 -55 59 -85 23 -31 49 -71 58 -88 8 -18 55 -75 105 -126 139 -147 147
-155 169 -196 55 -103 2 -209 -204 -405 -50 -48 -105 -95 -123 -105 -30 -16
-34 -16 -115 11 -102 33 -108 32 -227 -63 -47 -37 -115 -90 -151 -117 -36 -27
-73 -57 -83 -67 -9 -9 -48 -37 -85 -61 -70 -45 -183 -128 -217 -159 -34 -31
-193 -147 -202 -147 -5 0 -40 -25 -78 -56 -115 -91 -105 -99 -105 83 0 87 -3
276 -7 420 l-6 261 49 7 c70 9 217 51 267 76 106 54 243 170 307 261 82 117
115 231 115 403 0 61 -4 127 -8 148 l-8 38 236 -2 237 -1 17 -30z"/>
<path d="M4736 5845 c-9 -13 -16 -32 -16 -42 0 -22 -56 -113 -69 -113 -5 0
-45 -5 -87 -11 -142 -20 -199 -69 -190 -165 2 -29 12 -66 20 -83 14 -27 22
-31 56 -31 22 0 40 -2 40 -4 0 -2 -27 -50 -60 -105 -64 -108 -71 -131 -41
-131 14 0 36 31 82 115 60 107 66 115 89 109 35 -8 36 -10 22 -47 -16 -41 -4
-50 92 -72 106 -24 229 -4 318 51 45 29 60 55 60 105 -2 104 -109 197 -286
245 -34 10 -62 18 -64 19 -4 4 39 77 58 100 24 27 29 47 18 68 -12 23 -23 21
-42 -8z"/>
<path d="M3280 5585 c0 -128 1 -135 20 -135 18 0 20 7 20 55 l0 55 43 0 c53 0
88 18 105 54 31 64 -17 106 -122 106 l-66 0 0 -135z"/>
<path d="M3110 5245 l0 -135 24 0 c23 0 25 4 28 53 l3 52 58 3 c51 3 58 6 72
32 19 37 19 63 0 100 -15 30 -17 30 -100 30 l-85 0 0 -135z"/>
<path d="M3375 5355 c-14 -13 -25 -33 -25 -44 0 -33 42 -70 100 -89 43 -13 56
-22 58 -39 6 -44 -88 -51 -104 -8 -9 22 -54 20 -54 -2 1 -42 39 -63 112 -63
40 0 60 5 75 20 49 45 34 105 -32 128 -88 31 -95 35 -95 53 0 26 33 41 64 29
14 -5 26 -14 26 -20 0 -5 14 -10 30 -10 35 0 37 8 9 44 -18 23 -28 26 -80 26
-50 0 -64 -4 -84 -25z"/>
<path d="M4210 4670 c-75 -67 -259 -180 -345 -211 -27 -10 -32 -16 -23 -26 14
-17 29 -16 89 3 67 22 132 13 148 -22 13 -29 14 -178 1 -244 -4 -25 -11 -62
-15 -82 -6 -30 -4 -39 9 -44 26 -10 37 8 56 83 l17 68 -1 -75 c-1 -68 1 -75
18 -75 30 0 47 102 71 440 8 108 11 117 40 151 14 16 24 38 23 49 -5 34 -40
28 -88 -15z"/>
<path d="M4624 4243 c-62 -142 -110 -226 -151 -264 -49 -45 -92 -55 -72 -16 7
12 34 48 60 80 27 32 49 68 49 79 0 33 -55 15 -106 -34 -53 -52 -53 -52 -198
-114 -99 -43 -122 -50 -133 -39 -13 14 -34 21 -133 49 -39 11 -76 32 -125 73
-39 31 -71 61 -73 65 -2 4 -15 8 -28 8 -52 0 -19 -80 60 -145 43 -35 59 -65
36 -65 -51 0 -124 68 -170 157 -14 26 -28 50 -32 51 -5 2 -8 14 -8 26 0 24
-46 102 -74 125 -13 11 -20 11 -28 3 -19 -19 6 -96 71 -224 51 -99 66 -120
123 -168 36 -30 93 -67 127 -82 l61 -26 27 41 c28 42 99 87 137 87 14 0 9 -7
-20 -29 -54 -39 -81 -71 -89 -103 -8 -32 -14 -30 105 -28 97 1 167 14 281 50
105 34 161 64 205 112 29 30 104 140 104 152 0 3 11 29 24 59 30 65 50 142 42
162 -3 8 -15 15 -26 15 -16 0 -27 -14 -46 -57z"/>
<path d="M5877 6072 c366 -322 668 -817 799 -1307 15 -55 37 -154 49 -220 13
-66 24 -110 24 -98 1 32 -35 212 -64 323 -92 343 -279 708 -511 1000 -71 90
-347 370 -364 370 -6 0 25 -31 67 -68z"/>
<path d="M6775 5934 c-154 -85 -286 -161 -292 -167 -10 -10 -7 -23 12 -65 13
-29 31 -55 39 -58 8 -3 70 24 137 61 67 36 122 65 124 63 13 -18 115 -199 115
-205 0 -5 -54 -37 -120 -71 -106 -56 -120 -67 -120 -89 0 -25 48 -113 61 -113
4 0 60 30 125 66 66 36 151 83 190 105 39 21 115 63 169 94 53 30 101 55 106
55 18 0 8 37 -21 83 -16 26 -35 47 -41 47 -6 0 -61 -27 -123 -59 l-112 -60
-56 107 -57 107 110 59 c61 32 113 64 115 70 9 24 -50 126 -73 126 -4 0 -134
-70 -288 -156z"/>
<path d="M961 5934 c-11 -14 -25 -41 -31 -59 -11 -33 -7 -43 70 -196 l82 -161
-69 38 c-37 20 -91 50 -119 65 -28 16 -59 29 -67 29 -21 0 -69 -83 -65 -110 2
-16 28 -35 93 -69 284 -148 481 -256 488 -265 8 -12 8 -12 50 51 15 24 27 51
27 60 0 13 -42 40 -141 93 l-141 75 188 15 c104 8 196 20 204 25 19 12 40 50
40 70 0 8 5 15 10 15 6 0 10 11 10 25 0 24 -2 25 -62 24 -35 0 -130 -6 -213
-13 -82 -7 -150 -12 -151 -12 0 1 -31 69 -69 151 -37 83 -72 156 -78 163 -15
19 -34 14 -56 -14z"/>
<path d="M7185 5299 c-79 -12 -119 -25 -190 -64 -74 -41 -107 -75 -136 -139
-42 -95 -9 -250 75 -357 66 -85 114 -104 246 -103 119 1 159 13 261 74 75 46
101 77 125 149 32 99 -11 257 -96 354 -67 76 -160 104 -285 86z m190 -180 c60
-53 81 -121 60 -190 -26 -84 -146 -144 -287 -144 -72 0 -79 2 -109 30 -41 39
-69 99 -69 150 0 97 141 183 302 184 62 1 70 -2 103 -30z"/>
<path d="M875 5104 c-153 -13 -283 -28 -288 -33 -7 -7 -29 -75 -44 -137 -3
-12 1 -27 9 -33 49 -42 552 -382 572 -387 30 -7 45 16 52 84 l6 47 -61 39
c-34 21 -63 41 -65 45 -8 13 51 233 65 242 8 5 46 9 86 9 l72 0 16 52 c8 28
15 62 15 75 0 22 -3 23 -77 22 -43 -1 -204 -12 -358 -25z m92 -221 c-11 -43
-22 -80 -24 -82 -1 -2 -58 29 -125 70 l-123 74 40 6 c22 3 88 7 147 8 l106 1
-21 -77z"/>
<path d="M7210 4467 c-166 -38 -238 -144 -228 -335 5 -96 38 -171 100 -228 66
-61 128 -79 268 -79 153 1 222 27 290 111 44 55 63 167 49 275 -16 111 -66
177 -172 229 -56 27 -80 32 -159 36 -55 2 -116 -2 -148 -9z m229 -158 c30 -6
64 -23 87 -43 36 -31 38 -36 42 -102 4 -90 -16 -130 -84 -164 -41 -20 -63 -24
-139 -25 -161 0 -223 40 -237 152 -9 81 8 127 61 157 60 35 176 45 270 25z"/>
<path d="M1100 4463 c-126 -47 -203 -82 -237 -111 -24 -19 -43 -29 -43 -23 0
6 -16 29 -35 50 -26 29 -49 42 -86 51 -175 42 -266 -79 -257 -343 2 -82 7
-110 18 -117 9 -6 156 -10 348 -10 l332 0 0 63 c0 36 -5 68 -12 75 -8 8 -54
12 -141 12 l-129 0 6 32 c11 56 30 72 155 127 67 30 126 62 132 72 10 20 12
73 3 107 -6 21 -23 26 -54 15z m-376 -203 c15 -14 21 -37 24 -85 l4 -65 -96 0
-96 0 0 40 c0 69 20 117 55 129 40 13 85 5 109 -19z"/>
<path d="M6295 3908 c-19 -57 -71 -136 -112 -168 -44 -35 -78 -26 -142 35 -32
30 -62 55 -68 55 -6 0 -19 -27 -31 -60 -52 -154 -154 -279 -311 -384 -200
-133 -215 -142 -319 -197 -157 -83 -330 -211 -377 -279 -27 -39 -30 -51 -30
-119 0 -53 5 -86 18 -110 14 -28 15 -37 5 -47 -26 -23 -115 -62 -203 -88 -233
-68 -398 -91 -655 -89 -219 1 -370 19 -565 69 -77 19 -156 39 -175 43 -64 15
-92 33 -85 55 28 100 25 178 -9 245 -26 50 -98 122 -183 182 -81 58 -248 149
-273 149 -21 0 -313 151 -362 187 -27 19 -48 38 -48 41 0 4 -21 30 -46 57 -53
58 -96 138 -120 223 l-17 59 -67 -68 c-58 -60 -72 -69 -103 -69 -20 0 -48 5
-62 12 -30 14 -83 91 -115 171 -39 95 -50 75 -50 -94 0 -165 28 -298 91 -437
47 -103 181 -269 279 -346 32 -25 61 -46 65 -46 4 0 25 -13 48 -29 110 -75
171 -109 292 -164 121 -54 319 -127 346 -127 7 0 27 -12 46 -26 64 -49 36 -81
-97 -112 -39 -9 -70 -21 -70 -28 0 -15 140 -144 156 -144 4 0 33 -20 63 -43
136 -107 416 -242 551 -267 25 -5 88 -18 140 -29 140 -30 341 -43 480 -30 175
15 410 58 518 95 109 36 312 135 390 191 37 25 94 64 126 86 73 49 206 178
206 200 0 11 -12 18 -37 22 -140 24 -197 51 -171 82 19 24 92 62 164 87 155
53 319 133 415 203 26 18 51 33 57 33 14 0 171 126 197 158 11 14 52 63 92
108 116 134 184 305 204 514 11 116 1 281 -18 287 -6 2 -19 -19 -28 -49z
m-410 -638 c33 -104 27 -127 -23 -91 -17 11 -34 21 -39 21 -6 0 -18 9 -28 20
-26 29 -29 18 -6 -26 56 -108 28 -130 -62 -49 -34 30 -69 55 -76 55 -11 0 -12
3 -4 11 15 15 68 -9 105 -46 l26 -25 -19 67 c-11 42 -14 72 -9 77 6 6 29 -7
60 -33 28 -24 53 -41 56 -38 3 2 -4 31 -16 63 -23 68 -25 84 -7 84 8 0 25 -37
42 -90z m-3485 9 c46 -42 51 -72 19 -113 -28 -35 -69 -34 -126 4 -24 17 -46
30 -48 30 -2 0 -16 -20 -32 -45 -30 -48 -40 -54 -49 -30 -6 14 15 55 40 81 6
6 31 40 56 76 l45 66 27 -16 c15 -9 45 -32 68 -53z m3258 -129 c57 -54 64
-122 15 -160 -80 -63 -198 30 -159 125 8 18 22 38 33 44 30 18 87 13 111 -9z
m-3032 -104 l35 -35 -25 -48 c-34 -64 -71 -107 -85 -99 -6 4 -9 12 -6 17 4 5
-8 9 -26 9 -41 0 -79 34 -79 70 0 50 44 64 113 35 46 -19 56 -19 64 0 10 26
-26 55 -69 55 -36 0 -47 8 -31 23 3 4 22 7 41 7 25 0 43 -9 68 -34z m2701 -39
c22 -17 3 -27 -40 -21 -34 5 -47 2 -70 -16 -56 -44 -55 -95 2 -156 31 -32 39
-36 72 -31 66 9 126 74 95 105 -11 11 -19 11 -49 -2 -52 -21 -54 -3 -5 33 l43
31 31 -37 c27 -33 30 -41 21 -63 -39 -92 -157 -132 -225 -75 -35 30 -62 82
-62 122 0 85 124 159 187 110z m-1379 -727 c25 -15 32 -27 32 -50 l0 -30 -70
0 c-38 0 -70 -4 -70 -9 0 -16 41 -61 57 -61 8 0 28 8 44 17 39 23 51 7 16 -23
-60 -51 -135 -15 -144 69 -5 38 -2 52 13 68 37 42 75 48 122 19z m230 5 c7 -7
21 -177 15 -185 -2 -2 -13 1 -24 8 -15 9 -25 10 -41 1 -25 -13 -88 -5 -100 13
-23 37 3 81 52 92 14 2 37 7 53 11 15 3 27 12 27 20 0 21 -48 30 -87 16 -19
-7 -37 -10 -40 -8 -8 9 7 28 31 38 23 9 102 6 114 -6z m216 6 c4 -5 18 -5 34
1 40 15 81 3 92 -28 6 -14 10 -57 10 -95 0 -62 -2 -69 -20 -69 -18 0 -20 7
-20 80 0 76 -1 80 -24 86 -13 3 -34 1 -45 -6 -18 -9 -21 -20 -21 -85 0 -70 -2
-75 -21 -75 -17 0 -20 4 -15 23 3 12 6 57 6 100 0 69 9 93 24 68z"/>
<path d="M609 3757 c-45 -21 -84 -59 -108 -104 -24 -46 2 -330 33 -362 14 -13
48 -10 337 32 176 26 325 50 331 53 13 8 4 122 -10 136 -6 6 -49 4 -118 -6
-60 -8 -112 -12 -115 -8 -4 4 -14 40 -23 81 -12 55 -25 85 -52 118 -19 23 -42
43 -50 43 -8 0 -14 4 -14 9 0 11 -87 31 -133 31 -18 0 -53 -10 -78 -23z m162
-141 c30 -6 46 -34 58 -98 l8 -48 -36 -6 c-20 -4 -67 -12 -106 -20 -38 -7 -73
-10 -77 -8 -4 3 -8 34 -8 70 0 57 3 68 26 89 34 32 65 36 135 21z"/>
<path d="M6978 3687 c-13 -10 -24 -56 -43 -170 -14 -86 -25 -162 -25 -170 0
-30 113 -51 123 -23 3 8 11 60 18 116 13 100 13 101 39 96 173 -34 534 -86
542 -78 6 6 12 39 15 74 l5 65 -288 46 c-382 62 -366 60 -386 44z"/>
<path d="M1420 3464 c0 -5 11 -52 25 -104 92 -343 280 -710 511 -1000 87 -109
295 -317 404 -404 225 -179 537 -355 791 -445 685 -243 1426 -205 2074 104
126 60 278 144 262 145 -5 0 -41 -19 -80 -42 -108 -63 -297 -150 -428 -197
-592 -211 -1231 -211 -1828 0 -254 90 -567 266 -791 445 -109 87 -307 285
-394 394 -233 291 -420 660 -512 1005 -24 93 -34 121 -34 99z"/>
<path d="M110 3124 c0 -31 92 -343 138 -466 113 -301 245 -561 417 -823 67
-102 194 -277 218 -300 20 -20 -7 20 -71 105 -308 408 -537 887 -677 1415 -13
50 -24 81 -25 69z"/>
<path d="M804 2910 l6 -101 -27 15 c-16 7 -56 25 -90 39 l-62 25 -20 -61 c-12
-33 -20 -61 -18 -62 7 -6 139 -35 156 -35 36 0 30 -16 -30 -81 -32 -35 -59
-68 -59 -74 0 -13 74 -65 92 -65 15 0 88 115 88 137 0 31 28 8 65 -53 62 -102
54 -97 108 -61 26 18 47 36 47 41 0 4 -27 39 -61 77 -57 64 -59 69 -37 73 53
12 163 39 165 41 2 1 -6 29 -18 62 l-20 61 -87 -34 c-48 -19 -88 -34 -90 -34
-2 0 -1 43 3 95 l7 95 -62 0 -63 0 7 -100z"/>
<path d="M7065 2973 c2 -21 7 -66 10 -100 l6 -61 -78 34 c-43 18 -85 34 -94
34 -10 0 -21 -19 -32 -53 -9 -30 -17 -56 -17 -59 0 -3 26 -10 58 -17 31 -7 74
-17 95 -22 l39 -10 -44 -48 c-91 -100 -91 -100 -27 -144 46 -32 48 -31 86 43
10 19 21 37 24 40 3 3 12 17 20 32 l14 27 50 -79 c28 -44 57 -80 65 -80 8 0
27 11 42 25 15 14 32 25 38 25 17 0 11 18 -17 49 -16 16 -43 47 -60 69 -37 46
-45 40 78 68 l76 17 -19 60 c-10 34 -20 62 -21 64 -2 1 -16 -4 -31 -12 -16 -8
-33 -15 -40 -15 -6 0 -35 -11 -64 -25 -46 -21 -53 -22 -48 -7 2 9 8 54 11 100
l7 82 -66 0 -66 0 5 -37z"/>
<path d="M1330 2304 c-40 -28 -70 -77 -70 -113 0 -13 5 -52 11 -86 19 -101 -1
-135 -70 -120 -23 5 -34 17 -50 55 -12 27 -21 62 -21 78 0 37 -6 43 -34 28
-34 -17 -56 -42 -56 -63 0 -19 32 -94 49 -115 58 -72 99 -98 154 -98 34 0 87
19 87 33 0 4 7 7 15 7 8 0 25 20 37 45 21 42 21 50 10 128 -17 115 -16 122 13
135 35 16 82 -8 91 -46 23 -103 25 -105 72 -65 30 26 32 31 23 61 -14 48 -69
117 -112 141 -49 28 -105 26 -149 -5z"/>
<path d="M6757 2248 c-23 -35 -25 -44 -12 -46 8 -2 15 -8 15 -13 0 -5 6 -9 13
-9 7 0 24 -11 39 -25 15 -14 30 -25 33 -25 4 0 13 -6 20 -12 17 -15 35 -29 57
-43 72 -47 104 -69 109 -77 7 -11 69 51 69 69 0 7 -4 13 -8 13 -5 0 -26 16
-48 35 -21 19 -42 35 -46 35 -6 0 -68 43 -113 78 -5 4 -25 17 -42 27 -18 11
-33 23 -33 27 0 22 -29 3 -53 -34z"/>
<path d="M6650 2093 c-40 -15 -76 -70 -82 -127 l-3 -29 -55 44 c-30 24 -64 51
-74 61 -11 10 -22 18 -25 18 -9 0 -61 -67 -61 -78 0 -5 26 -29 58 -53 121 -90
137 -103 145 -116 4 -7 14 -13 22 -13 8 0 20 -8 27 -18 7 -10 29 -29 48 -43
19 -13 49 -37 68 -54 60 -53 64 -53 100 7 l23 37 -48 32 c-26 18 -52 39 -56
46 -4 7 -15 13 -22 13 -8 0 -15 4 -15 8 0 5 -11 15 -25 22 -44 24 -46 111 -2
131 32 14 81 -9 147 -70 30 -28 60 -50 67 -51 7 0 17 -8 22 -17 11 -18 17 -14
70 53 6 7 -4 21 -26 40 -19 16 -44 37 -54 47 -10 9 -22 17 -27 17 -4 0 -21 12
-37 27 -61 57 -136 84 -185 66z"/>
<path d="M1474 2015 c-10 -19 -21 -35 -25 -35 -4 0 -12 -15 -20 -32 -7 -18
-16 -35 -19 -38 -7 -5 -16 -21 -64 -114 -16 -31 -33 -56 -38 -56 -21 0 -4 -43
32 -80 37 -38 60 -50 60 -32 0 4 16 14 35 21 19 7 35 16 35 21 0 5 10 12 23
16 12 3 35 16 50 26 37 26 44 17 19 -24 -11 -18 -37 -62 -57 -97 -39 -69 -39
-68 19 -122 33 -32 22 -35 224 69 118 60 139 67 107 36 -24 -25 -18 -32 42
-49 52 -15 103 -52 103 -75 0 -20 -24 -60 -37 -60 -7 0 -13 4 -13 10 0 17
-118 70 -155 70 -77 0 -136 -112 -89 -170 40 -49 56 -61 98 -72 33 -9 46 -18
51 -35 3 -12 18 -29 33 -37 28 -14 29 -14 47 17 10 18 21 34 25 37 3 3 19 23
35 45 17 22 38 47 47 56 10 9 18 21 18 28 0 6 4 11 8 11 17 0 42 70 36 99 -6
30 -19 47 -70 91 -29 26 -115 70 -134 70 -6 0 -9 4 -6 9 5 8 -27 58 -46 72
-10 6 -105 -38 -126 -58 -7 -7 -18 -13 -23 -13 -5 0 -27 -12 -49 -26 -22 -15
-42 -25 -44 -23 -7 7 26 70 69 134 11 17 28 46 39 67 l18 36 -31 32 -31 33
-72 -38 c-40 -21 -90 -49 -111 -62 -22 -14 -41 -22 -43 -20 -6 6 56 121 67
125 5 2 9 8 9 13 0 5 11 27 24 48 l25 38 -35 37 c-19 20 -36 36 -37 36 -2 0
-12 -16 -23 -35z"/>
<path d="M6260 1913 l-35 -35 24 -17 c14 -9 69 -59 122 -111 168 -164 244
-236 256 -243 8 -5 24 5 42 25 30 33 39 58 22 58 -5 0 -50 39 -99 88 -245 237
-282 272 -289 271 -4 -1 -24 -17 -43 -36z"/>
<path d="M7360 1698 c-210 -300 -535 -634 -848 -870 -488 -368 -1028 -611
-1657 -744 -60 -13 -87 -21 -60 -18 72 8 248 49 410 96 551 158 1069 440 1512
823 241 208 547 546 678 748 33 52 9 27 -35 -35z"/>
<path d="M6260 1666 c-88 -31 -150 -135 -128 -213 16 -53 90 -153 114 -153 4
0 16 -7 26 -17 51 -46 166 1 242 99 38 48 39 52 25 77 -20 36 -47 39 -59 6
-17 -44 -78 -95 -114 -95 -42 0 -76 10 -76 22 0 6 17 26 38 45 64 58 132 127
132 133 -1 16 -71 81 -102 94 -44 19 -52 19 -98 2z"/>
<path d="M905 1510 c36 -66 366 -406 529 -544 274 -234 675 -489 939 -599 75
-32 34 -8 -85 50 -478 231 -939 585 -1286 988 -103 120 -107 125 -97 105z"/>
<path d="M5852 1502 c-29 -11 -73 -33 -97 -51 -24 -17 -47 -31 -52 -31 -9 -1
-43 -28 -60 -51 -11 -13 -9 -21 12 -45 14 -16 25 -32 25 -36 0 -4 8 -17 18
-28 9 -11 26 -37 37 -58 11 -20 38 -64 60 -97 22 -33 47 -72 54 -87 8 -16 18
-28 23 -28 4 0 8 -5 8 -11 0 -6 7 -17 15 -25 13 -14 20 -13 57 8 24 13 45 26
48 29 3 3 25 18 49 34 50 31 91 69 91 85 0 5 4 10 8 10 13 0 34 70 34 111 -1
43 -22 119 -33 119 -4 0 -11 9 -14 20 -3 11 -12 26 -18 33 -7 7 -17 22 -23 32
-17 30 -97 74 -145 80 -29 4 -62 -1 -97 -13z m101 -101 c34 -13 73 -54 98
-103 29 -57 23 -140 -12 -171 -36 -33 -79 -58 -88 -53 -15 10 -111 155 -147
224 -10 17 -21 32 -26 32 -20 0 -5 38 20 51 60 30 111 36 155 20z"/>
<path d="M2183 1390 c-3 -11 -9 -20 -14 -20 -5 0 -9 -5 -9 -10 0 -6 -4 -16
-10 -23 -14 -16 -75 -111 -84 -128 -6 -15 -27 -47 -60 -93 l-19 -28 34 -29
c19 -16 38 -29 42 -29 10 0 37 26 37 35 0 4 16 29 35 55 19 26 35 53 35 59 0
7 11 23 25 36 30 31 100 35 121 8 12 -17 14 -17 31 3 40 44 43 58 17 83 -19
18 -33 22 -67 20 -37 -3 -43 -1 -39 13 4 17 -41 68 -60 68 -6 0 -12 -9 -15
-20z"/>
<path d="M2412 1222 c-42 -13 -95 -67 -123 -127 -46 -95 -38 -148 32 -217 62
-61 143 -77 217 -44 49 22 117 114 128 172 8 42 -1 107 -16 112 -5 2 -10 9
-10 16 0 6 -13 20 -30 29 -16 10 -35 23 -42 30 -15 15 -87 37 -114 36 -11 -1
-29 -4 -42 -7z m129 -114 c50 -57 -16 -198 -92 -198 -76 1 -104 77 -57 157 34
58 40 62 87 63 33 0 48 -5 62 -22z"/>
<path d="M5336 1078 c-11 -12 -25 -33 -32 -46 -12 -23 -12 -23 -19 -3 -3 12
-10 21 -14 21 -13 0 -81 -30 -81 -35 0 -3 13 -35 29 -72 54 -127 99 -238 106
-260 8 -28 13 -28 65 -6 46 20 47 25 21 79 -10 21 -29 67 -41 102 -21 56 -22
67 -10 102 11 34 17 40 41 40 33 0 43 13 35 45 -14 55 -67 72 -100 33z"/>
<path d="M2798 1047 c-21 -5 -38 -13 -38 -18 0 -5 -6 -9 -13 -9 -41 0 -112
-147 -104 -217 8 -73 85 -139 187 -160 78 -15 177 64 206 165 16 53 12 142 -5
142 -4 0 -14 11 -21 25 -25 46 -147 88 -212 72z m123 -108 c19 -29 20 -59 5
-111 -12 -40 -24 -59 -50 -77 -31 -20 -40 -22 -67 -12 -59 20 -72 62 -45 139
24 67 43 82 100 78 27 -2 52 -9 57 -17z"/>
<path d="M5010 969 c-50 -14 -110 -41 -110 -50 0 -4 -9 -11 -20 -14 -11 -3
-20 -13 -20 -21 0 -8 -4 -14 -10 -14 -5 0 -10 7 -10 16 0 14 -10 15 -72 9 -93
-8 -178 -26 -178 -37 0 -4 -6 -8 -13 -8 -18 0 -57 -71 -57 -104 0 -15 9 -45
20 -67 16 -30 18 -44 10 -58 -16 -31 -12 -69 10 -91 24 -24 24 -27 5 -46 -8
-9 -15 -33 -15 -54 0 -80 100 -113 228 -75 31 10 67 30 87 50 30 28 35 40 35
78 0 37 -5 50 -32 77 l-33 32 -100 -4 c-85 -3 -100 -1 -103 13 -2 13 5 16 35
16 40 0 92 22 126 53 23 22 34 98 18 129 -10 17 -9 21 3 21 8 0 21 7 30 15 13
13 15 13 21 -5 7 -23 30 -27 38 -6 8 20 83 56 117 56 21 0 35 -8 46 -26 20
-30 16 -35 -51 -59 -120 -43 -158 -138 -83 -208 17 -15 43 -31 59 -34 35 -7
109 19 134 47 14 15 21 17 31 9 17 -14 71 -2 78 17 7 17 3 35 -25 139 -30 107
-68 182 -98 194 -46 17 -65 19 -101 10z"/>
<path d="M3698 957 c-17 -14 -27 -102 -45 -398 l-6 -106 27 -7 c14 -3 37 -4
50 0 27 6 30 27 42 251 l7 122 19 -37 c10 -20 28 -62 39 -92 11 -30 26 -64 33
-75 7 -11 25 -53 40 -93 31 -80 54 -102 106 -102 68 1 68 2 89 266 12 160 15
243 8 252 -5 6 -27 12 -48 12 -32 0 -39 -4 -44 -22 -4 -23 -24 -255 -26 -306
0 -24 -2 -23 -15 13 -8 21 -19 42 -25 46 -6 3 -10 9 -8 13 1 4 -22 63 -51 130
-47 109 -57 125 -85 135 -41 14 -86 14 -107 -2z"/>
<path d="M3071 768 c-23 -101 -49 -213 -58 -250 -18 -78 -12 -93 39 -100 43
-7 55 8 69 86 13 70 27 82 52 45 20 -27 90 -43 130 -29 84 29 157 193 129 289
-25 81 -123 132 -190 97 -39 -20 -42 -20 -42 4 0 22 -28 40 -62 40 -23 0 -26
-9 -67 -182z m231 45 c21 -18 25 -91 8 -140 -15 -42 -59 -66 -97 -52 -45 15
-54 45 -38 115 15 64 41 94 83 94 14 0 34 -7 44 -17z"/>
<path d="M5557 877 c-37 -21 -46 -44 -26 -64 7 -7 14 -49 18 -95 6 -80 7 -83
30 -80 34 3 48 27 61 100 9 54 8 71 -6 107 -9 24 -22 46 -28 48 -7 3 -29 -4
-49 -16z"/>
<path d="M4234 824 c-71 -26 -99 -65 -74 -104 8 -12 15 -11 49 8 31 18 53 22
93 20 51 -3 53 -4 56 -34 3 -30 1 -32 -40 -38 -50 -8 -122 -39 -145 -61 -9 -9
-18 -39 -21 -66 -4 -46 -2 -51 32 -84 32 -30 44 -35 85 -35 27 0 63 8 85 20
36 18 40 18 51 3 10 -14 19 -15 46 -7 39 11 38 6 24 203 -7 102 -8 105 -45
144 -34 37 -42 41 -96 44 -35 1 -76 -4 -100 -13z"/>
</g>
</svg>
